<?xml version="1.0" standalone="no"?>
<!DOCTYPE svg PUBLIC "-//W3C//DTD SVG 20010904//EN"
 "http://www.w3.org/TR/2001/REC-SVG-20010904/DTD/svg10.dtd">
<svg version="1.0" xmlns="http://www.w3.org/2000/svg"
 width="1890.000000pt" height="1417.000000pt" viewBox="0 0 1890.000000 1417.000000"
 preserveAspectRatio="xMidYMid meet">

<g transform="translate(0.000000,1417.000000) scale(0.100000,-0.100000)"
fill="#000000" stroke="none">
<path d="M9300 8487 c-52 -40 -50 -21 -50 -603 0 -1010 -12 -2072 -24 -2069
-6 2 -168 6 -361 9 -640 11 -1852 49 -2265 71 -52 2 -140 7 -195 10 -190 10
-490 36 -578 50 -99 15 -123 11 -156 -31 -35 -45 -23 -107 28 -137 106 -62
1225 -123 2946 -158 l590 -13 3 -500 c4 -603 19 -1326 32 -1566 11 -196 26
-540 36 -820 l6 -185 -28 -15 c-16 -8 -54 -34 -84 -56 -81 -60 -407 -277 -465
-309 -27 -15 -57 -32 -65 -39 -14 -10 -52 -32 -103 -59 -12 -7 -36 -21 -52
-32 -17 -11 -48 -29 -70 -40 -22 -11 -50 -27 -63 -37 -13 -9 -44 -27 -70 -39
-26 -12 -60 -31 -75 -42 -15 -10 -56 -33 -90 -51 -34 -18 -80 -44 -102 -57
-22 -14 -62 -35 -90 -49 -27 -13 -72 -38 -100 -55 -27 -17 -84 -48 -125 -68
-84 -43 -185 -97 -275 -147 -84 -46 -272 -144 -390 -202 -55 -27 -109 -54
-120 -60 -11 -6 -76 -40 -145 -76 -69 -35 -186 -95 -260 -134 -213 -110 -374
-194 -525 -272 -77 -40 -183 -95 -235 -122 -136 -71 -161 -125 -90 -195 52
-53 2 -73 690 284 337 176 412 214 640 330 292 149 454 232 535 277 90 50 191
104 275 147 41 20 98 51 125 68 28 17 73 42 100 55 28 14 73 39 101 56 29 18
77 44 108 59 30 14 58 31 62 36 3 5 34 23 69 40 34 16 73 37 86 47 13 10 42
26 64 37 22 11 53 29 70 40 30 20 53 34 111 65 17 9 44 26 59 38 15 12 31 22
36 22 16 0 342 215 466 307 39 29 75 53 80 53 4 0 19 9 33 20 33 26 35 26 64
-16 39 -58 195 -220 266 -278 98 -79 199 -156 204 -156 3 0 35 -21 71 -47 37
-27 79 -54 93 -62 15 -8 81 -49 147 -91 66 -42 128 -79 137 -83 10 -3 43 -22
73 -42 31 -19 59 -35 64 -35 5 0 22 -10 38 -23 15 -12 64 -40 108 -61 44 -22
87 -45 95 -52 9 -7 65 -39 125 -70 180 -93 391 -202 735 -381 69 -35 172 -89
230 -120 58 -30 139 -72 180 -94 41 -22 93 -50 115 -63 22 -14 74 -41 115 -62
41 -21 85 -45 97 -54 12 -10 57 -34 100 -55 43 -21 85 -44 93 -51 13 -11 133
-75 232 -125 55 -28 85 -24 124 15 25 25 34 42 34 67 -1 55 -7 59 -210 166
-35 18 -71 39 -80 46 -8 7 -54 32 -102 55 -48 24 -90 46 -92 51 -3 5 -43 27
-88 50 -46 23 -99 51 -118 63 -45 27 -188 102 -530 280 -74 38 -191 99 -260
135 -171 88 -366 190 -480 248 -52 27 -97 52 -100 56 -3 4 -48 29 -100 55 -52
27 -97 51 -100 55 -3 4 -25 17 -50 30 -25 12 -56 30 -70 39 -14 10 -52 32 -85
50 -82 46 -385 238 -411 261 -11 11 -26 19 -32 19 -7 0 -12 4 -12 8 0 4 -12
15 -27 24 -16 9 -38 25 -49 35 -12 10 -36 29 -54 43 -18 14 -45 36 -60 50 -15
14 -40 37 -56 51 -43 38 -130 134 -149 163 -13 19 -14 29 -6 45 31 56 -2 115
-75 136 -43 12 -37 -31 -48 330 -7 213 -12 327 -21 445 -2 36 -7 138 -11 227
-3 89 -7 186 -9 215 -4 67 -14 831 -17 1348 l-3 395 445 -2 c639 -4 1817 -21
2220 -33 190 -6 516 -15 725 -20 209 -6 455 -13 547 -17 l167 -6 35 35 c46 46
49 92 10 131 -32 33 -46 35 -269 42 -99 3 -220 8 -270 10 -49 2 -216 7 -370
10 -154 3 -426 10 -605 15 -460 13 -783 19 -1430 25 -311 4 -610 8 -665 10
-55 3 -199 5 -320 5 l-220 0 2 173 c14 1608 15 2439 2 2463 -25 47 -103 70
-139 41z"/>
</g>
</svg>
