<?xml version="1.0" standalone="no"?>
<!DOCTYPE svg PUBLIC "-//W3C//DTD SVG 20010904//EN"
 "http://www.w3.org/TR/2001/REC-SVG-20010904/DTD/svg10.dtd">
<svg version="1.0" xmlns="http://www.w3.org/2000/svg"
 width="1890.000000pt" height="1417.000000pt" viewBox="0 0 1890.000000 1417.000000"
 preserveAspectRatio="xMidYMid meet">

<g transform="translate(0.000000,1417.000000) scale(0.100000,-0.100000)"
fill="#000000" stroke="none">
<path d="M8666 12053 c-14 -14 -28 -36 -31 -47 -10 -45 -26 -796 -20 -886 4
-52 13 -107 21 -122 32 -62 94 -75 145 -30 l32 28 2 335 c2 184 6 410 10 502
8 185 4 207 -47 233 -42 22 -82 17 -112 -13z"/>
<path d="M9986 11973 c-14 -14 -28 -36 -31 -47 -2 -12 -6 -147 -9 -301 -3
-178 -10 -329 -21 -416 -22 -168 -16 -237 25 -282 37 -42 97 -45 136 -5 25 24
26 32 29 144 2 66 8 153 14 194 6 41 14 207 18 368 7 319 5 330 -49 358 -42
22 -82 17 -112 -13z"/>
<path d="M8975 10434 c-98 -10 -208 -45 -342 -111 -91 -44 -128 -70 -196 -133
-124 -116 -237 -289 -285 -436 -11 -34 -27 -74 -35 -90 -37 -74 -27 -152 25
-188 52 -37 130 3 148 74 11 46 57 174 82 228 67 150 203 302 315 353 38 17
79 36 93 44 48 25 156 53 235 59 81 7 320 -5 450 -24 250 -35 307 -45 372 -66
90 -29 139 -61 190 -122 56 -68 70 -92 89 -158 16 -57 72 -204 116 -309 12
-27 20 -67 19 -87 -3 -55 42 -103 97 -103 61 0 112 59 112 128 0 13 -31 102
-69 198 -38 96 -76 200 -85 232 -9 32 -25 72 -36 90 -11 18 -26 46 -35 63 -17
33 -150 174 -164 174 -5 0 -22 11 -38 24 -15 12 -75 38 -133 55 -58 18 -112
35 -120 37 -8 3 -46 9 -85 14 -190 25 -305 39 -355 44 -77 8 -317 14 -365 10z"/>
</g>
</svg>
