<?xml version="1.0" standalone="no"?>
<!DOCTYPE svg PUBLIC "-//W3C//DTD SVG 20010904//EN"
 "http://www.w3.org/TR/2001/REC-SVG-20010904/DTD/svg10.dtd">
<svg version="1.0" xmlns="http://www.w3.org/2000/svg"
 width="1890.000000pt" height="1417.000000pt" viewBox="0 0 1890.000000 1417.000000"
 preserveAspectRatio="xMidYMid meet">

<g transform="translate(0.000000,1417.000000) scale(0.100000,-0.100000)"
fill="#000000" stroke="none">
<path d="M8666 12053 c-14 -14 -28 -36 -31 -47 -10 -45 -26 -796 -20 -886 4
-52 13 -107 21 -122 32 -62 94 -75 145 -30 l32 28 2 335 c2 184 6 410 10 502
8 185 4 207 -47 233 -42 22 -82 17 -112 -13z"/>
<path d="M9986 11973 c-14 -14 -28 -36 -31 -47 -2 -12 -6 -147 -9 -301 -3
-178 -10 -329 -21 -416 -22 -168 -16 -237 25 -282 37 -42 97 -45 136 -5 25 24
26 32 29 144 2 66 8 153 14 194 6 41 14 207 18 368 7 319 5 330 -49 358 -42
22 -82 17 -112 -13z"/>
<path d="M11171 10359 c-214 -230 -352 -352 -452 -400 -21 -11 -40 -23 -44
-28 -5 -9 -46 -30 -160 -81 -107 -49 -249 -90 -380 -111 -169 -28 -748 -7
-1005 36 -47 8 -137 21 -200 30 -204 28 -442 88 -555 140 -54 25 -77 45 -140
119 -55 67 -135 95 -175 63 -29 -22 -50 -61 -50 -90 0 -43 184 -221 271 -264
74 -36 215 -82 344 -112 50 -11 109 -25 132 -31 23 -5 97 -17 165 -25 68 -9
164 -23 213 -30 110 -18 405 -42 615 -51 311 -13 612 37 829 137 119 55 178
86 204 106 16 13 33 23 39 23 6 0 37 20 69 44 153 115 231 184 309 273 47 53
107 118 133 143 40 38 49 53 50 83 2 67 -37 107 -105 107 -26 0 -44 -13 -107
-81z"/>
</g>
</svg>
