<svg version="1.1" id="Layer_1" xmlns="http://www.w3.org/2000/svg" xmlns:xlink="http://www.w3.org/1999/xlink" x="0px" y="0px"
	 width="100%" viewBox="0 0 1890 1417" enable-background="new 0 0 1890 1417" xml:space="preserve">
<path fill="#FFFFFF" opacity="1.000000" stroke="none" 
	d="
M1039.000000,1418.000000 
	C692.666748,1418.000000 346.833527,1418.000000 1.000232,1418.000000 
	C1.000155,945.666931 1.000155,473.333832 1.000077,1.000549 
	C630.999573,1.000366 1260.999146,1.000366 1890.999023,1.000183 
	C1890.999268,473.332764 1890.999268,945.665527 1890.999634,1417.999146 
	C1607.166626,1418.000000 1323.333374,1418.000000 1039.000000,1418.000000 
M1001.706848,445.000763 
	C998.614380,445.333832 995.515991,445.991852 992.430542,445.936157 
	C984.668823,445.796051 976.910217,445.385162 969.155212,444.988800 
	C956.969666,444.365967 944.786072,443.699677 932.605957,442.979034 
	C928.675659,442.746460 924.725708,442.496704 920.842651,441.886414 
	C911.209839,440.372467 901.552002,438.927094 892.011353,436.939514 
	C877.448853,433.905731 862.934631,430.611267 848.482117,427.090057 
	C839.800354,424.974854 831.968140,421.555725 826.498596,413.526154 
	C823.977905,409.825653 819.402954,407.248688 815.310242,404.968628 
	C810.812561,402.462952 806.982117,404.066437 803.825256,408.691925 
	C801.029114,412.788879 801.228638,416.664673 804.731750,420.169189 
	C807.047485,422.485901 810.221436,424.115204 812.037720,426.728790 
	C817.372925,434.406067 824.750610,439.884125 833.089172,442.702026 
	C848.660156,447.963989 864.591064,452.510376 880.695679,455.743347 
	C896.334656,458.882874 912.342468,460.387787 928.255493,461.906219 
	C946.747986,463.670776 965.301819,464.888153 983.853577,465.886200 
	C990.740662,466.256744 997.747925,465.745880 1004.610535,464.904602 
	C1015.247559,463.600647 1025.984497,462.378662 1036.348022,459.794403 
	C1045.821289,457.432129 1054.930420,453.497589 1064.051270,449.880951 
	C1068.653076,448.056244 1073.170288,445.770752 1077.294067,443.041260 
	C1084.981812,437.952728 1092.545898,432.631836 1099.796509,426.942749 
	C1105.526733,422.446716 1110.909058,417.454773 1116.088135,412.322113 
	C1123.067505,405.405334 1129.504517,397.935364 1136.579590,391.123749 
	C1139.636719,388.180389 1140.302734,381.977142 1137.906372,378.393250 
	C1134.110962,372.716766 1127.238525,372.242920 1121.775269,377.846954 
	C1116.733887,383.018311 1112.357300,388.833832 1107.373535,394.066193 
	C1091.846069,410.368134 1074.167236,423.505310 1053.284180,432.510559 
	C1036.991333,439.536530 1020.394531,444.345276 1001.706848,445.000763 
M862.000000,284.561127 
	C862.333557,294.149658 862.621399,303.740082 863.017883,313.326019 
	C863.254639,319.050781 868.101990,324.069641 873.139587,323.999603 
	C878.548035,323.924408 883.073547,318.843262 882.952881,312.674164 
	C882.898804,309.911011 882.055786,307.158447 882.049133,304.399933 
	C882.018616,291.725830 881.966980,279.046570 882.283508,266.378143 
	C882.666016,251.063751 883.486145,235.760727 883.963623,220.448029 
	C884.156982,214.245819 879.887085,210.085068 873.724792,210.000168 
	C868.497803,209.928116 864.184753,214.679703 863.983521,220.544693 
	C863.717285,228.304153 863.252441,236.057114 863.018616,243.817261 
	C862.619446,257.070374 862.333557,270.326935 862.000000,284.561127 
M996.000000,252.499207 
	C995.666504,263.414185 995.473267,274.336182 994.928345,285.240601 
	C994.718506,289.440887 993.320007,293.585297 993.148621,297.783142 
	C992.836304,305.433807 992.759399,313.118958 993.135742,320.762573 
	C993.328857,324.683929 999.080872,328.970276 1002.965393,328.993683 
	C1007.247864,329.019501 1011.137756,325.890717 1011.943176,321.026855 
	C1012.451599,317.956604 1011.772339,314.708862 1012.041626,311.576508 
	C1013.217712,297.896912 1015.059814,284.253693 1015.680176,270.552887 
	C1016.352173,255.710892 1015.948486,240.819687 1015.960449,225.949890 
	C1015.961060,225.212708 1015.548523,224.419891 1015.164124,223.746750 
	C1012.742676,219.506378 1007.476440,217.002243 1003.237610,218.022720 
	C999.544617,218.911758 996.020203,224.229843 996.005920,229.023529 
	C995.983704,236.515457 996.000000,244.007507 996.000000,252.499207 
z"/>
<path fill="#E0082C" opacity="1.000000" stroke="none" 
	d="
M1002.177368,445.000397 
	C1020.394531,444.345276 1036.991333,439.536530 1053.284180,432.510559 
	C1074.167236,423.505310 1091.846069,410.368134 1107.373535,394.066193 
	C1112.357300,388.833832 1116.733887,383.018311 1121.775269,377.846954 
	C1127.238525,372.242920 1134.110962,372.716766 1137.906372,378.393250 
	C1140.302734,381.977142 1139.636719,388.180389 1136.579590,391.123749 
	C1129.504517,397.935364 1123.067505,405.405334 1116.088135,412.322113 
	C1110.909058,417.454773 1105.526733,422.446716 1099.796509,426.942749 
	C1092.545898,432.631836 1084.981812,437.952728 1077.294067,443.041260 
	C1073.170288,445.770752 1068.653076,448.056244 1064.051270,449.880951 
	C1054.930420,453.497589 1045.821289,457.432129 1036.348022,459.794403 
	C1025.984497,462.378662 1015.247559,463.600647 1004.610535,464.904602 
	C997.747925,465.745880 990.740662,466.256744 983.853577,465.886200 
	C965.301819,464.888153 946.747986,463.670776 928.255493,461.906219 
	C912.342468,460.387787 896.334656,458.882874 880.695679,455.743347 
	C864.591064,452.510376 848.660156,447.963989 833.089172,442.702026 
	C824.750610,439.884125 817.372925,434.406067 812.037720,426.728790 
	C810.221436,424.115204 807.047485,422.485901 804.731750,420.169189 
	C801.228638,416.664673 801.029114,412.788879 803.825256,408.691925 
	C806.982117,404.066437 810.812561,402.462952 815.310242,404.968628 
	C819.402954,407.248688 823.977905,409.825653 826.498596,413.526154 
	C831.968140,421.555725 839.800354,424.974854 848.482117,427.090057 
	C862.934631,430.611267 877.448853,433.905731 892.011353,436.939514 
	C901.552002,438.927094 911.209839,440.372467 920.842651,441.886414 
	C924.725708,442.496704 928.675659,442.746460 932.605957,442.979034 
	C944.786072,443.699677 956.969666,444.365967 969.155212,444.988800 
	C976.910217,445.385162 984.668823,445.796051 992.430542,445.936157 
	C995.515991,445.991852 998.614380,445.333832 1002.177368,445.000397 
z"/>
<path fill="#E0082C" opacity="1.000000" stroke="none" 
	d="
M862.000000,284.071594 
	C862.333557,270.326935 862.619446,257.070374 863.018616,243.817261 
	C863.252441,236.057114 863.717285,228.304153 863.983521,220.544693 
	C864.184753,214.679703 868.497803,209.928116 873.724792,210.000168 
	C879.887085,210.085068 884.156982,214.245819 883.963623,220.448029 
	C883.486145,235.760727 882.666016,251.063751 882.283508,266.378143 
	C881.966980,279.046570 882.018616,291.725830 882.049133,304.399933 
	C882.055786,307.158447 882.898804,309.911011 882.952881,312.674164 
	C883.073547,318.843262 878.548035,323.924408 873.139587,323.999603 
	C868.101990,324.069641 863.254639,319.050781 863.017883,313.326019 
	C862.621399,303.740082 862.333557,294.149658 862.000000,284.071594 
z"/>
<path fill="#E0082C" opacity="1.000000" stroke="none" 
	d="
M996.000000,251.999359 
	C996.000000,244.007507 995.983704,236.515457 996.005920,229.023529 
	C996.020203,224.229843 999.544617,218.911758 1003.237610,218.022720 
	C1007.476440,217.002243 1012.742676,219.506378 1015.164124,223.746750 
	C1015.548523,224.419891 1015.961060,225.212708 1015.960449,225.949890 
	C1015.948486,240.819687 1016.352173,255.710892 1015.680176,270.552887 
	C1015.059814,284.253693 1013.217712,297.896912 1012.041626,311.576508 
	C1011.772339,314.708862 1012.451599,317.956604 1011.943176,321.026855 
	C1011.137756,325.890717 1007.247864,329.019501 1002.965393,328.993683 
	C999.080872,328.970276 993.328857,324.683929 993.135742,320.762573 
	C992.759399,313.118958 992.836304,305.433807 993.148621,297.783142 
	C993.320007,293.585297 994.718506,289.440887 994.928345,285.240601 
	C995.473267,274.336182 995.666504,263.414185 996.000000,251.999359 
z"/>
</svg>