<svg version="1.1" id="Layer_1" xmlns="http://www.w3.org/2000/svg" xmlns:xlink="http://www.w3.org/1999/xlink" x="0px" y="0px"
	 width="100%" viewBox="0 0 1024 752" enable-background="new 0 0 1024 752" xml:space="preserve">
<path fill="#000000" opacity="1.000000" stroke="none" 
	d="
M597.896362,80.974716 
	C617.451355,89.619652 634.355103,101.652977 650.424316,114.977585 
	C657.867310,121.149277 665.220215,127.452141 671.232178,135.058319 
	C685.268860,152.816940 692.987366,173.067184 691.126099,195.724503 
	C688.543457,227.163361 677.011169,254.933884 653.952820,277.350494 
	C641.283142,289.667480 626.022278,296.931183 609.317871,301.621735 
	C581.509644,309.430237 553.034973,313.054749 524.315918,315.440308 
	C495.092041,317.867828 466.119720,315.452515 437.341858,311.066986 
	C416.537537,307.896576 396.349182,301.726166 378.734253,289.677155 
	C358.378235,275.753204 349.462921,254.763367 345.865143,231.371872 
	C342.180511,207.415588 346.054901,183.972809 352.968353,160.973801 
	C358.894196,141.260223 367.056458,122.513824 378.628693,105.446556 
	C393.957367,82.839096 415.661743,69.972839 442.429626,65.885857 
	C456.342804,63.761555 470.498993,63.943756 484.515442,61.945919 
	C499.601349,59.795654 514.541077,64.485413 529.564331,65.966789 
	C546.117859,67.599075 562.362610,71.109566 578.596313,74.638626 
	C585.133911,76.059837 591.299500,78.546951 597.896362,80.974716 
M669.752014,153.736191 
	C667.381897,149.529480 664.908142,145.385986 661.680176,141.764740 
	C649.631104,128.247406 635.425659,117.269844 620.556519,107.107658 
	C604.613281,96.211395 587.500427,88.153732 568.353455,84.328758 
	C548.768616,80.416321 528.995056,77.985611 509.245239,75.278687 
	C499.534271,73.947693 489.811707,72.017471 480.044159,74.331291 
	C470.730988,76.537468 461.312805,76.645142 451.825714,77.083542 
	C428.056885,78.181892 407.822937,87.682663 392.673981,106.061615 
	C379.956146,121.491051 372.260864,139.844162 366.062134,158.745163 
	C357.994019,183.346054 353.177979,208.414993 358.380554,234.263168 
	C361.891052,251.704315 368.654602,267.691986 383.745636,278.719238 
	C394.942291,286.900818 407.616547,292.112244 420.882477,295.356201 
	C451.399658,302.818695 482.483978,305.284058 513.861084,303.978638 
	C543.316040,302.753174 572.414734,298.872925 601.008789,291.639771 
	C614.131592,288.320221 626.961792,283.873322 637.841675,275.579620 
	C658.854736,259.561371 670.591919,237.801437 676.824402,212.387192 
	C681.822815,192.004745 679.714783,172.865341 669.752014,153.736191 
z"/>
</svg>