<svg version="1.1" id="Layer_1" xmlns="http://www.w3.org/2000/svg" xmlns:xlink="http://www.w3.org/1999/xlink" x="0px" y="0px"
	 width="100%" viewBox="0 0 1024 752" enable-background="new 0 0 1024 752" xml:space="preserve">
<path fill="#000000" opacity="1.000000" stroke="none" 
	d="
M369.574707,120.625031 
	C381.460297,96.377525 399.250397,78.981667 424.664825,70.241867 
	C435.032867,66.676384 445.768799,64.179268 456.931671,64.734406 
	C463.451538,65.058647 469.815643,64.213089 476.218109,62.873562 
	C488.476776,60.308796 500.728668,61.944389 512.947693,63.734203 
	C524.598755,65.440819 536.268005,67.024651 547.934692,68.622742 
	C577.112854,72.619530 604.758972,80.550575 628.900452,98.446045 
	C641.620117,107.874802 654.240234,117.322960 665.469604,128.550385 
	C682.321960,145.399780 691.265137,166.089386 691.459045,189.449387 
	C691.631226,210.178604 686.123718,230.122437 675.714844,248.537643 
	C669.774719,259.046906 663.035828,268.728271 654.384644,277.173615 
	C641.890381,289.370605 626.730957,296.519073 610.266418,301.405640 
	C586.418701,308.483490 561.869995,311.555603 537.264893,314.394073 
	C521.030823,316.266876 504.739532,317.095825 488.458405,316.141663 
	C457.566193,314.331177 426.878784,311.717163 397.619812,299.862518 
	C366.417572,287.220490 350.635529,263.474243 345.874207,231.444489 
	C341.949554,205.043182 346.827667,179.503433 355.044434,154.394531 
	C358.842865,142.787338 363.879547,131.784744 369.574707,120.625031 
M398.264008,99.741798 
	C392.954498,104.869705 388.487671,110.720940 384.891388,117.095139 
	C369.857208,143.742416 359.702240,171.913757 356.937317,202.712036 
	C355.315399,220.778473 358.005524,237.809845 364.865265,254.346329 
	C372.883087,273.674622 388.783539,283.873596 407.465790,290.929352 
	C430.649811,299.685303 454.968445,301.833527 479.348083,303.646454 
	C496.294922,304.906677 513.190918,304.627167 530.164795,302.992523 
	C553.016052,300.791870 575.732788,297.941895 598.025635,292.476318 
	C612.780640,288.858826 627.247559,284.082886 639.385925,274.456116 
	C650.192383,265.885712 658.445496,255.268692 665.198425,243.088440 
	C673.539307,228.043823 678.250427,212.000229 679.384888,195.219131 
	C680.921875,172.484497 672.540527,152.786713 656.702393,136.505630 
	C646.231201,125.741486 634.374329,116.554482 621.958008,108.105347 
	C606.159607,97.354668 589.488464,88.852516 570.491699,84.878433 
	C550.276367,80.649422 529.822815,78.297035 509.446350,75.276192 
	C497.707458,73.535889 486.065399,72.196053 474.357666,75.364235 
	C469.689148,76.627571 464.920105,77.316231 460.035492,77.085976 
	C436.544647,75.978615 416.289154,83.838989 398.264008,99.741798 
z"/>
</svg>