<svg version="1.1" id="Layer_1" xmlns="http://www.w3.org/2000/svg" xmlns:xlink="http://www.w3.org/1999/xlink" x="0px" y="0px"
	 width="100%" viewBox="0 0 1024 752" enable-background="new 0 0 1024 752" xml:space="preserve">
<path fill="#000000" opacity="1.000000" stroke="none" 
	d="
M784.521545,359.517395 
	C793.310242,348.844452 801.882629,338.457886 810.473267,328.086487 
	C811.965210,326.285217 814.001160,325.823547 816.264221,325.675598 
	C822.941589,325.239166 829.522461,326.476166 836.161804,326.690216 
	C839.805359,326.807709 841.960327,329.337189 842.832336,332.545410 
	C844.659607,339.268860 846.143005,346.086273 847.742859,352.870911 
	C848.556519,356.321503 846.550903,358.543060 844.262695,360.615845 
	C834.512024,369.448639 825.098389,378.607849 817.538574,389.454559 
	C811.460938,398.174683 805.607361,407.050903 799.536743,415.776001 
	C797.930847,418.084167 798.327942,419.667908 800.395752,421.276886 
	C801.969849,422.501770 803.435791,423.868805 804.919373,425.206390 
	C810.934448,430.629578 811.515747,434.943085 806.672363,441.248871 
	C802.520874,446.653748 798.570801,452.249237 793.599731,456.978851 
	C788.003723,462.303101 784.838196,462.490997 778.819824,457.733002 
	C775.990295,455.496124 773.290649,453.094971 770.252380,450.532257 
	C765.922058,456.975159 760.983154,462.552979 757.680908,469.298767 
	C756.347961,472.021637 754.569519,474.578308 750.936890,474.333008 
	C747.537659,474.103516 746.213562,471.853699 745.472290,468.809906 
	C744.865601,466.318481 742.366699,465.972656 740.361267,465.369995 
	C737.663269,464.559204 734.799438,464.277313 732.132324,463.390839 
	C725.956116,461.338043 724.981384,457.773590 728.010193,452.033630 
	C731.965698,444.537354 735.405151,436.769440 739.100342,429.134735 
	C740.142273,426.981964 739.405396,425.374664 737.920227,423.746094 
	C733.316223,418.697540 728.558044,413.846344 722.766541,410.112885 
	C717.868103,406.955139 717.225159,403.933350 720.931152,399.426025 
	C724.941162,394.549042 729.186401,389.846344 733.572327,385.302399 
	C739.400513,379.264099 743.334351,378.661469 751.037720,381.877472 
	C755.358948,383.681519 759.028931,386.541016 763.610962,389.651581 
	C768.475586,378.044037 775.703735,368.421509 784.521545,359.517395 
M808.206665,349.664398 
	C805.888306,352.274048 803.373474,354.736389 801.286438,357.519562 
	C793.332642,368.126678 782.720398,376.678986 776.961853,388.981140 
	C776.115967,390.788300 775.090393,392.514160 774.293945,394.341309 
	C769.596924,405.118011 765.315552,406.253662 755.932434,399.158508 
	C743.907837,390.066010 743.795959,390.079224 734.538940,401.992889 
	C734.357300,402.226715 734.361084,402.604614 734.200378,403.207977 
	C738.396973,407.918549 743.337036,412.123230 747.760925,416.828644 
	C752.754700,422.140137 752.459045,427.450409 749.968933,433.260162 
	C747.809631,438.298126 745.161377,443.124939 742.933899,448.136078 
	C742.098450,450.015747 739.827209,452.702911 743.538574,453.832428 
	C746.789429,454.821777 750.314453,459.438538 753.700073,453.580536 
	C756.440308,448.838928 759.621765,444.347656 762.695129,439.804596 
	C765.757751,435.277252 768.711182,434.558197 773.211548,437.671112 
	C776.617920,440.027283 779.673645,442.893494 782.859436,445.563721 
	C783.975159,446.498932 785.015076,448.182617 786.619629,446.776367 
	C790.502686,443.373016 794.804504,439.713776 795.939392,434.783966 
	C796.803467,431.030457 791.665649,429.937500 789.054382,427.807312 
	C788.409424,427.281128 787.766296,426.752594 787.122070,426.225494 
	C784.229492,423.859070 783.142883,421.361237 785.081299,417.558838 
	C789.323975,409.236298 794.979492,401.886810 800.141785,394.180908 
	C808.680481,381.434784 817.474487,368.823059 829.070435,358.745941 
	C834.766113,353.796295 835.299927,348.997650 833.252380,342.608063 
	C832.389526,339.915314 831.278564,338.656647 828.352234,337.991760 
	C821.811096,336.505646 816.532898,337.380371 812.824585,343.512634 
	C811.625549,345.495483 810.062012,347.257843 808.206665,349.664398 
z"/>
</svg>