<?xml version="1.0" standalone="no"?>
<!DOCTYPE svg PUBLIC "-//W3C//DTD SVG 20010904//EN"
 "http://www.w3.org/TR/2001/REC-SVG-20010904/DTD/svg10.dtd">
<svg version="1.0" xmlns="http://www.w3.org/2000/svg"
 width="1890.000000pt" height="1417.000000pt" viewBox="0 0 1890.000000 1417.000000"
 preserveAspectRatio="xMidYMid meet">

<g transform="translate(0.000000,1417.000000) scale(0.100000,-0.100000)"
fill="#000000" stroke="none">
<path d="M14984 8150 c-12 -5 -32 -23 -45 -42 -12 -18 -34 -44 -47 -58 -13
-14 -56 -68 -95 -120 -40 -52 -108 -133 -152 -180 -44 -47 -105 -119 -136
-160 -31 -41 -84 -104 -118 -139 -95 -99 -176 -213 -249 -353 -37 -70 -69
-128 -72 -128 -3 0 -19 13 -37 28 -67 58 -79 66 -152 102 -152 75 -232 74
-318 -4 -70 -64 -284 -307 -301 -343 -13 -27 -13 -36 -2 -63 13 -30 67 -80 87
-80 14 0 132 -107 226 -204 67 -69 77 -85 73 -108 -3 -15 -41 -100 -85 -190
-43 -90 -91 -189 -105 -221 -14 -32 -34 -70 -46 -84 -40 -51 -20 -109 50 -147
26 -14 56 -26 67 -26 31 0 129 -28 178 -51 34 -16 45 -27 45 -45 0 -55 49
-104 103 -104 35 0 78 39 107 96 33 68 105 180 150 234 21 25 40 54 44 65 3
11 14 30 24 43 l18 23 60 -58 c183 -176 242 -190 355 -85 75 69 255 290 281
345 41 83 32 141 -29 199 -65 63 -144 129 -171 144 -8 4 21 58 57 105 23 30
41 58 41 62 0 5 26 42 58 83 31 42 63 87 71 101 7 14 31 49 52 77 21 28 39 54
39 59 0 4 47 69 104 145 95 124 216 252 444 469 72 69 75 85 43 206 -11 39
-32 126 -47 192 -43 192 -55 204 -218 216 -145 10 -325 10 -352 -1z m298 -196
l67 -7 15 -66 c9 -36 23 -100 31 -141 15 -75 15 -75 -7 -93 -89 -72 -319 -317
-397 -422 -33 -44 -78 -105 -101 -135 -22 -30 -65 -93 -95 -139 -30 -46 -69
-100 -87 -121 -18 -21 -44 -57 -58 -81 -14 -23 -55 -88 -92 -143 -38 -55 -68
-107 -68 -116 0 -8 -7 -24 -15 -34 -8 -11 -15 -33 -15 -49 0 -35 49 -86 133
-141 29 -18 67 -50 86 -69 l34 -36 -83 -103 c-81 -99 -136 -157 -153 -158 -4
0 -25 17 -45 38 -21 20 -64 59 -97 87 -33 27 -62 52 -65 55 -13 14 -58 37 -83
44 -52 13 -88 -16 -152 -121 -32 -53 -73 -115 -90 -137 -17 -23 -42 -59 -55
-80 -14 -22 -28 -44 -31 -49 -4 -5 -26 0 -50 11 -24 11 -72 30 -106 42 -35 13
-63 25 -63 28 0 11 78 173 116 242 39 71 77 172 85 225 12 87 11 97 -14 126
-12 15 -40 49 -62 75 -40 49 -107 117 -208 209 l-54 49 51 60 c28 32 74 81
101 107 41 39 55 47 75 42 45 -11 104 -46 175 -103 39 -32 81 -61 95 -65 14
-4 39 -16 56 -26 45 -27 75 -24 127 16 51 39 67 61 68 97 0 13 16 50 34 83 18
33 45 84 60 114 34 67 107 164 195 256 36 39 91 104 122 145 31 41 86 107 123
145 37 39 98 111 135 161 38 50 88 111 110 137 l42 47 71 0 c40 0 102 -3 139
-6z"/>
</g>
</svg>
